# AST/ASF file generated using VICON BodyLanguage
# -----------------------------------------------
:version 1.10
:name VICON
:units
  mass 1.0
  length 0.45
  angle deg
:documentation
   .ast/.asf automatically generated from VICON data using
   VICON BodyBuilder and BodyLanguage model FoxedUp or BRILLIANT.MOD
:root
   order TX TY TZ RX RY RZ
   axis XYZ
   position 0 0 0  
   orientation 0 0 0 
:bonedata
  begin
     id 1 
     name lhipjoint
     direction 0.606768 -0.715223 0.346827 
     length 2.41543 
     axis 0 0 0  XYZ
  end
  begin
     id 2 
     name lfemur
     direction 0.34202 -0.939693 0  
     length 7.2778  
     axis 0 0 20  XYZ
    dof rx ry rz
    limits (-160.0 20.0)
           (-70.0 70.0)
           (-60.0 70.0)
  end
  begin
     id 3 
     name ltibia
     direction 0.34202 -0.939693 0   
     length 7.61811   
     axis 0 0 20   XYZ
    dof rx
    limits (-10.0 170.0)
  end
  begin
     id 4 
     name lfoot
     direction 0.0823924 -0.226371 0.97055   
     length 2.33618   
     axis -90 7.62852e-016 20   XYZ
    dof rx rz
    limits (-45.0 90.0)
           (-70.0 20.0)
  end
  begin
     id 5 
     name ltoes
     direction 1.53554e-011 -4.21934e-011 1   
     length 1.17015   
     axis -90 7.62852e-016 20   XYZ
    dof rx
    limits (-90.0 20.0)
  end
  begin
     id 6 
     name rhipjoint
     direction -0.6077 -0.714582 0.346516   
     length 2.4176  
     axis 0 0 0  XYZ 
  end
  begin
     id 7 
     name rfemur
     direction -0.34202 -0.939693 0   
     length 7.28127   
     axis 0 0 -20   XYZ
    dof rx ry rz
    limits (-160.0 20.0)
           (-70.0 70.0)
           (-70.0 60.0)
  end
  begin
     id 8 
     name rtibia
     direction -0.34202 -0.939693 0   
     length 7.77648   
     axis 0 0 -20   XYZ
    dof rx
    limits (-10.0 170.0)
 end
 begin
     id 9 
     name rfoot
     direction -0.0809463 -0.222398 0.97159   
     length 2.37533  
     axis -90 -7.62852e-016 -20   XYZ
    dof rx rz
    limits (-45.0 90.0)
           (-20.0 70.0)
  end
  begin
     id 10 
     name rtoes
     direction -1.53568e-011 -4.21714e-011 1   
     length 1.18972   
     axis -90 -7.62852e-016 -20   XYZ
    dof rx
    limits (-90.0 20.0)
  end
  begin
     id 11 
     name lowerback
     direction 0.010968 0.991932 -0.126297   
     length 2.21698   
     axis 0 0 0   XYZ
    dof rx ry rz
    limits (-20.0 45.0)
           (-30.0 30.0)
           (-30.0 30.0)
  end
  begin
     id 12 
     name upperback
     direction 0.0167007 0.997503 -0.0686276   
     length 2.22371   
     axis 0 0 0   XYZ
    dof rx ry rz
    limits (-20.0 45.0)
           (-30.0 30.0)
           (-30.0 30.0)
  end
  begin
     id 13 
     name thorax
     direction 0.0111721 0.999885 -0.0102878   
     length 2.25242   
     axis 0 0 0   XYZ
    dof rx ry rz
    limits (-20.0 45.0)
           (-30.0 30.0)
           (-30.0 30.0)
  end
  begin
     id 14 
     name lowerneck
     direction -0.0120265 0.990428 0.137508   
     length 1.57674   
     axis 0 0 0   XYZ
    dof rx ry rz
    limits (-20.0 45.0)
           (-30.0 30.0)
           (-30.0 30.0)
  end
  begin
     id 15 
     name upperneck
     direction 0.0175669 0.998907 0.0433089   
     length 1.5618   
     axis 0 0 0   XYZ
    dof rx ry rz
    limits (-20.0 45.0)
           (-30.0 30.0)
           (-30.0 30.0)
  end
  begin
     id 16
     name head
     direction 0.00754609 0.99997 0.00185367  
     length 1.60579  
     axis 0 0 0   XYZ
    dof rx ry rz
    limits (-20.0 45.0)
           (-30.0 30.0)
           (-30.0 30.0)
  end
  begin
     id 17 
     name lclavicle
     direction 0.885866 0.429166 -0.176231  
     length 3.44967  
     axis 0 0 0   XYZ
    dof ry rz
    limits (-20.0 10.0)
           (0.0 20.0)
  end
  begin
     id 18 
     name lhumerus
     direction 1 -4.48973e-011 -1.90255e-027   
     length 5.20607   
     axis 180 -30 -90   XYZ
    dof rx ry rz
    limits (-60.0 90.0)
           (-90.0 90.0)
           (-90.0 90.0)
  end
  begin
     id 19
     name lradius
     direction 1 -4.48956e-011 9.87925e-027   
     length 3.39961   
     axis 180 -30 -90   XYZ
    dof rx
    limits (-10.0 170.0)
  end
  begin
     id 20
     name lwrist
     direction 1 -4.48985e-011 1.73247e-026   
     length 1.6998   
     axis -9.60847e-015 90 90   XYZ
    dof ry
    limits (-180.0 0.0)
 end
  begin
     id 21 
     name lhand
     direction 1 -4.48798e-011 3.46119e-026   
     length 0.519693   
     axis -2.21073e-014 90 90   XYZ
    dof rx rz
    limits (-90.0 90.0)
           (-45.0 45.0)
  end
  begin
     id 22 
     name lfingers
     direction 1 -4.48938e-011 6.92797e-026   
     length 0.41899   
     axis -4.42155e-014 90 90   XYZ
    dof rx
    limits (0.0 90.0)
  end
  begin
     id 23
     name lthumb
     direction 0.707107 -6.34952e-011 0.707107   
     length 0.601588   
     axis -90 45 6.0103e-014   XYZ
    dof rx rz
    limits (-45.0 45.0)
           (-45.0 45.0)
  end
  begin
     id 24 
     name rclavicle
     direction -0.866736 0.456792 -0.200276   
     length 3.45032  
     axis 0 0 0   XYZ 
    dof ry rz
    limits (-10.0 20.0)
           (-20.0 0.0)
  end
  begin
     id 25 
     name rhumerus
     direction -1 -4.4897e-011 8.65094e-028  
     length 5.32214   
     axis 180 30 90   XYZ
    dof rx ry rz
    limits (-90.0 60.0)
           (-90.0 90.0)
           (-90.0 90.0)
  end
  begin
     id 26 
     name rradius
     direction -1 -4.48987e-011 1.08427e-026   
     length 3.51208   
     axis 180 30 90   XYZ
    dof rx
    limits (-10.0 170.0)
  end
  begin
     id 27 
     name rwrist
     direction -1 -4.48961e-011 1.73222e-026   
     length 1.75604   
     axis -9.60847e-015 -90 -90   XYZ
    dof ry
    limits (-180.0 0.0)
  end
  begin
     id 28
     name rhand
     direction -1 -4.48895e-011 3.46314e-026   
     length 0.586681   
     axis -2.21073e-014 -90 -90   XYZ
    dof rx rz
    limits (-90.0 90.0)
           (-45.0 45.0)
  end
  begin
     id 29
     name rfingers
     direction -1 -4.48968e-011 6.92916e-026   
     length 0.472997   
     axis -4.42155e-014 -90 -90   XYZ
    dof rx
    limits (0.0 90.0)
  end
  begin
     id 30
     name rthumb
     direction -0.707107 -6.34848e-011 0.707107   
     length 0.679133   
     axis -90 -45 -6.0103e-014   XYZ
    dof rx rz
    limits (-45.0 45.0)
           (-45.0 45.0)
  end
:hierarchy
  begin
    root lhipjoint rhipjoint lowerback
    lhipjoint lfemur
    lfemur ltibia
    ltibia lfoot
    lfoot ltoes
    rhipjoint rfemur
    rfemur rtibia
    rtibia rfoot
    rfoot rtoes
    lowerback upperback
    upperback thorax
    thorax lowerneck lclavicle rclavicle
    lowerneck upperneck
    upperneck head
    lclavicle lhumerus
    lhumerus lradius
    lradius lwrist
    lwrist lhand lthumb
    lhand lfingers
    rclavicle rhumerus
    rhumerus rradius
    rradius rwrist
    rwrist rhand rthumb
    rhand rfingers
  end

#!OML:ASF H:\Dans Jumps\Project 1\Capture day 1\Session 1\subject.ASF
:FULLY-SPECIFIED
:DEGREES
71
root 0.427919 17.5874 -13.664 5.74249 -3.7977 -1.54245
lowerback -6.47591 -1.28918 -0.663711
upperback 0.521308 -1.7327 1.54653
thorax 4.24044 -0.892933 1.79881
lowerneck -11.8356 -5.95448 -4.57455
upperneck 12.4967 -7.74996 3.35684
head 6.03795 -3.73008 1.11653
rclavicle 2.24502e-014 -1.92821e-014
rhumerus -30.5072 -30.4662 -67.7612
rradius 23.1995
rwrist 44.9123
rhand -24.6845 -29.066
rfingers 7.12502
rthumb 1.81626 -59.038
lclavicle 2.24502e-014 -1.92821e-014
lhumerus -26.5334 28.6046 68.4571
lradius 13.3343
lwrist -20.6299
lhand -27.2175 -4.42549
lfingers 7.12502
lthumb -0.630197 25.5533
rfemur -9.13426 -1.45844 18.6894
rtibia 16.9473
rfoot -13.0622 -0.807638
rtoes 12.1526
lfemur -6.5967 7.48214 -17.6541
ltibia 14.0379
lfoot -10.7463 5.80419
ltoes 0.515767
72
root 0.429938 17.5873 -13.6645 5.73399 -3.78713 -1.54236
lowerback -6.48621 -1.29851 -0.661159
upperback 0.485437 -1.74532 1.55518
thorax 4.20966 -0.898871 1.80521
lowerneck -11.9546 -5.84166 -4.53073
upperneck 12.7195 -7.59512 3.27737
head 6.11754 -3.65634 1.09317
rclavicle 1.53685e-014 -1.09332e-014
rhumerus -30.2643 -30.2007 -67.6343
rradius 23.4121
rwrist 44.8923
rhand -24.913 -29.1839
rfingers 7.12502
rthumb 1.59558 -59.1577
lclavicle 1.53685e-014 -1.09332e-014
lhumerus -26.1669 28.2081 68.5168
lradius 13.4655
lwrist -20.1682
lhand -27.0823 -4.41756
lfingers 7.12502
lthumb -0.499539 25.5616
rfemur -9.11987 -1.46094 18.6828
rtibia 16.937
rfoot -13.0584 -0.822021
rtoes 12.1302
lfemur -6.59592 7.48619 -17.6612
ltibia 14.0484
lfoot -10.7527 5.78884
ltoes 0.502479
73
root 0.431764 17.5872 -13.6649 5.72609 -3.77537 -1.54259
lowerback -6.49604 -1.30678 -0.657808
upperback 0.448205 -1.7565 1.5623
thorax 4.17709 -0.904041 1.80974
lowerneck -12.0728 -5.72823 -4.48735
upperneck 12.9517 -7.4397 3.19934
head 6.20039 -3.58238 1.07047
rclavicle 2.98301e-014 -1.74931e-014
rhumerus -30.0252 -29.8923 -67.5164
rradius 23.6359
rwrist 44.8446
rhand -25.187 -29.3101
rfingers 7.12502
rthumb 1.33099 -59.2857
lclavicle 2.98301e-014 -1.74931e-014
lhumerus -25.8061 27.7689 68.5879
lradius 13.6111
lwrist -19.6663
lhand -26.9511 -4.38952
lfingers 7.12502
lthumb -0.372843 25.5899
rfemur -9.10537 -1.45955 18.6773
rtibia 16.9265
rfoot -13.0567 -0.841895
rtoes 12.1046
lfemur -6.59647 7.49253 -17.6673
ltibia 14.0609
lfoot -10.7602 5.77097
ltoes 0.489473
74
root 0.433357 17.5871 -13.6654 5.71795 -3.75965 -1.54351
lowerback -6.50363 -1.31456 -0.654339
upperback 0.410835 -1.76699 1.56852
thorax 4.14305 -0.908851 1.8134
lowerneck -12.1924 -5.61369 -4.44129
upperneck 13.1873 -7.28334 3.1231
head 6.28484 -3.50785 1.04812
rclavicle -4.24778e-014 3.20043e-014
rhumerus -29.7889 -29.5834 -67.3921
rradius 23.856
rwrist 44.7997
rhand -25.4807 -29.4723
rfingers 7.12502
rthumb 1.0473 -59.4495
lclavicle -4.24778e-014 3.20043e-014
lhumerus -25.4497 27.294 68.6683
lradius 13.7752
lwrist -19.1501
lhand -26.7999 -4.29981
lfingers 7.12502
lthumb -0.226811 25.6798
rfemur -9.08975 -1.45417 18.6733
rtibia 16.9171
rfoot -13.0578 -0.866189
rtoes 12.096
lfemur -6.59926 7.49506 -17.671
ltibia 14.0757
lfoot -10.7692 5.75054
ltoes 0.499512
75
root 0.434694 17.587 -13.6659 5.70786 -3.74289 -1.54372
lowerback -6.50833 -1.32094 -0.652678
upperback 0.374298 -1.77542 1.57346
thorax 4.10819 -0.912663 1.81701
lowerneck -12.3131 -5.49813 -4.38926
upperneck 13.4238 -7.12598 3.04402
head 6.36976 -3.43292 1.0242
rclavicle -2.56929e-014 1.03368e-014
rhumerus -29.5577 -29.2707 -67.2624
rradius 24.0768
rwrist 44.7572
rhand -25.8122 -29.6357
rfingers 7.12502
rthumb 0.727129 -59.6142
lclavicle -2.56929e-014 1.03368e-014
lhumerus -25.0972 26.7946 68.755
lradius 13.9448
lwrist -18.6144
lhand -26.6667 -4.22381
lfingers 7.12502
lthumb -0.0982207 25.7559
rfemur -9.07318 -1.44613 18.6693
rtibia 16.9109
rfoot -13.0613 -0.894061
rtoes 12.0887
lfemur -6.60078 7.49898 -17.6739
ltibia 14.0921
lfoot -10.7792 5.72762
ltoes 0.503953
76
root 0.435794 17.5867 -13.6666 5.69568 -3.72677 -1.54602
lowerback -6.50988 -1.32532 -0.650196
upperback 0.340221 -1.78128 1.57855
thorax 4.074 -0.915207 1.82062
lowerneck -12.4367 -5.38239 -4.33468
upperneck 13.6581 -6.96829 2.96431
head 6.4547 -3.3579 0.999852
rclavicle 1.32689e-014 5.76476e-015
rhumerus -29.3259 -28.9775 -67.1226
rradius 24.2881
rwrist 44.7356
rhand -26.191 -29.8136
rfingers 7.12502
rthumb 0.361244 -59.7931
lclavicle 1.32689e-014 5.76476e-015
lhumerus -24.7473 26.2916 68.8421
lradius 14.1131
lwrist -18.0878
lhand -26.5548 -4.17232
lfingers 7.12502
lthumb 0.00988248 25.8074
rfemur -9.05676 -1.43773 18.6683
rtibia 16.909
rfoot -13.0668 -0.920081
rtoes 12.0879
lfemur -6.60194 7.4996 -17.6725
ltibia 14.1097
lfoot -10.788 5.70557
ltoes 0.521373
77
root 0.43677 17.5864 -13.6671 5.68061 -3.71077 -1.54528
lowerback -6.51093 -1.32783 -0.650508
upperback 0.310011 -1.78441 1.58234
thorax 4.04348 -0.916479 1.8247
lowerneck -12.5653 -5.26631 -4.27964
upperneck 13.8885 -6.81013 2.88761
head 6.53976 -3.28252 0.976555
rclavicle -1.88845e-015 2.50469e-014
rhumerus -29.0943 -28.6955 -66.9755
rradius 24.4934
rwrist 44.7241
rhand -26.618 -29.9943
rfingers 7.12502
rthumb -0.051124 -59.974
lclavicle -1.88845e-015 2.50469e-014
lhumerus -24.399 25.7881 68.9304
lradius 14.2772
lwrist -17.5685
lhand -26.4748 -4.14629
lfingers 7.12502
lthumb 0.0871873 25.8334
rfemur -9.04021 -1.43516 18.6643
rtibia 16.9128
rfoot -13.0748 -0.940405
rtoes 12.0864
lfemur -6.60035 7.5009 -17.6737
ltibia 14.1277
lfoot -10.7975 5.68324
ltoes 0.535511
78
root 0.437607 17.586 -13.6679 5.66463 -3.69529 -1.54328
lowerback -6.50978 -1.32971 -0.652526
upperback 0.2823 -1.78659 1.58603
thorax 4.01435 -0.917335 1.82976
lowerneck -12.6984 -5.15125 -4.2297
upperneck 14.1169 -6.65313 2.81841
head 6.62582 -3.20746 0.956462
rclavicle -1.72197e-014 -5.96354e-016
rhumerus -28.8629 -28.4152 -66.8261
rradius 24.6982
rwrist 44.7227
rhand -27.0591 -30.2134
rfingers 7.12502
rthumb -0.477123 -60.1926
lclavicle -1.72197e-014 -5.96354e-016
lhumerus -24.0582 25.3115 69.0069
lradius 14.4355
lwrist -17.1109
lhand -26.4032 -4.14221
lfingers 7.12502
lthumb 0.156323 25.8375
rfemur -9.02696 -1.43594 18.6595
rtibia 16.9222
rfoot -13.0839 -0.957152
rtoes 12.0795
lfemur -6.59864 7.50014 -17.6756
ltibia 14.1462
lfoot -10.8047 5.66382
ltoes 0.536855
79
root 0.43843 17.5855 -13.6687 5.64706 -3.68052 -1.53667
lowerback -6.50695 -1.33113 -0.658279
upperback 0.256875 -1.78784 1.58867
thorax 3.98669 -0.917816 1.83594
lowerneck -12.8302 -5.03819 -4.19002
upperneck 14.3406 -6.49872 2.76217
head 6.71138 -3.13331 0.942191
rclavicle 2.7395e-014 1.66979e-014
rhumerus -28.634 -28.1387 -66.673
rradius 24.8994
rwrist 44.7231
rhand -27.521 -30.4238
rfingers 7.12502
rthumb -0.923307 -60.4016
lclavicle 2.7395e-014 1.66979e-014
lhumerus -23.7266 24.8664 69.0716
lradius 14.5844
lwrist -16.7152
lhand -26.3513 -4.15545
lfingers 7.12502
lthumb 0.206455 25.8242
rfemur -9.01685 -1.44443 18.6498
rtibia 16.9382
rfoot -13.0944 -0.966388
rtoes 12.065
lfemur -6.5955 7.4983 -17.6828
ltibia 14.1642
lfoot -10.8112 5.64654
ltoes 0.530693
